<svg width="22" height="22" viewBox="0 0 22 22" xmlns="http://www.w3.org/2000/svg">
    <g fill="none" fill-rule="evenodd">
        <path d="M-1-1h24v24H-1z"/>
        <path d="M11 1C5.477 1 1 5.477 1 11s4.477 10 10 10 10-4.477 10-10A10 10 0 0 0 11 1zm9 9.5h-3c-.095-3.315-1.11-6.16-2.645-7.85A9 9 0 0 1 20 10.5zm-9.5-8.455V10.5H6c.15-4.43 2.07-8 4.5-8.455zm0 9.455v8.455c-2.43-.435-4.35-4-4.5-8.455h4.5zm1 8.455V11.5H16c-.15 4.43-2.07 8-4.5 8.455zm0-9.455V2.045C13.93 2.5 15.85 6.07 16 10.5h-4.5zM7.66 2.65C6.12 4.34 5.11 7.185 5 10.5H2a9 9 0 0 1 5.66-7.85zM2.025 11.5h3c.095 3.315 1.105 6.16 2.645 7.85a9 9 0 0 1-5.645-7.85zm12.315 7.85c1.535-1.69 2.55-4.535 2.645-7.85h3a9 9 0 0 1-5.645 7.85z" stroke="#000" stroke-width=".5" fill="#000" fill-rule="nonzero"/>
    </g>
</svg>
